<?xml version="1.0" standalone="no"?>
<!DOCTYPE svg PUBLIC "-//W3C//DTD SVG 20010904//EN"
 "http://www.w3.org/TR/2001/REC-SVG-20010904/DTD/svg10.dtd">
<svg version="1.0" xmlns="http://www.w3.org/2000/svg"
 width="244.000000pt" height="244.000000pt" viewBox="0 0 244.000000 244.000000"
 preserveAspectRatio="xMidYMid meet">
<metadata>
Created by potrace 1.11, written by Peter Selinger 2001-2013
</metadata>
<g transform="translate(0.000000,244.000000) scale(0.100000,-0.100000)"
fill="#000000" stroke="none">
<path d="M0 1220 l0 -1170 1220 0 1220 0 0 1170 0 1170 -1220 0 -1220 0 0
-1170z m1424 855 c418 -123 679 -497 653 -935 -10 -167 -75 -341 -179 -479
-39 -51 -40 -55 -23 -68 33 -24 125 -53 167 -53 37 0 39 2 27 17 -13 15 -12
15 8 5 18 -10 25 -9 39 5 16 16 16 16 9 -6 -5 -15 -1 -29 12 -43 18 -21 18
-21 -4 -7 -19 11 -25 11 -43 -6 -14 -12 -19 -14 -15 -4 4 12 -9 13 -78 11 -63
-3 -98 1 -142 16 l-58 20 -61 -50 c-80 -65 -240 -142 -346 -168 -102 -24 -291
-27 -390 -6 -307 65 -572 299 -668 589 -54 163 -65 292 -37 452 64 366 356
660 723 730 117 22 294 13 406 -20z"/>
<path d="M992 2064 c-323 -71 -587 -333 -663 -660 -18 -81 -21 -114 -17 -232
5 -119 9 -150 37 -232 31 -95 46 -129 54 -120 2 3 40 68 84 145 44 77 141 246
215 375 75 129 201 349 281 488 l146 252 -37 -1 c-20 -1 -65 -7 -100 -15z"/>
<path d="M1147 2038 c-14 -24 -46 -79 -71 -123 -25 -44 -46 -83 -46 -86 0 -4
57 -9 128 -11 98 -3 135 -8 161 -22 18 -10 32 -14 30 -9 -16 36 -166 292 -171
293 -4 0 -18 -19 -31 -42z"/>
<path d="M1230 2076 c0 -5 139 -247 547 -951 39 -66 94 -164 124 -217 30 -54
56 -98 59 -98 9 0 59 136 77 208 26 105 23 296 -5 401 -47 174 -125 304 -255
428 -93 88 -198 151 -320 191 -86 29 -227 53 -227 38z"/>
<path d="M992 1311 l3 -461 25 -25 26 -25 227 2 226 3 -170 190 c-93 105 -196
215 -228 246 l-59 56 76 7 c175 14 251 96 240 256 -6 81 -37 151 -81 182 -28
20 -46 23 -160 26 l-128 4 3 -461z"/>
<path d="M831 1492 c-30 -53 -128 -225 -219 -381 -90 -156 -166 -290 -169
-297 -4 -12 31 -14 199 -14 196 0 206 1 224 21 18 20 19 45 24 395 3 206 3
374 0 374 -3 -1 -29 -44 -59 -98z"/>
<path d="M1470 1520 c0 -21 -9 -63 -20 -92 -31 -83 -130 -168 -195 -168 -14 0
-25 -3 -25 -6 0 -6 355 -398 392 -432 24 -22 31 -22 161 -20 l135 3 -110 190
c-60 105 -152 262 -203 351 -52 88 -99 172 -106 187 -17 38 -29 33 -29 -13z"/>
<path d="M430 761 c0 -16 89 -130 138 -178 99 -96 196 -156 323 -201 222 -78
468 -64 674 38 74 37 197 120 202 138 2 4 -15 17 -36 29 -22 13 -77 59 -124
103 l-85 80 -546 0 c-312 0 -546 -4 -546 -9z"/>
<path d="M1680 761 c0 -5 28 -33 63 -62 100 -87 89 -85 129 -31 19 26 43 59
53 75 l17 27 -131 0 c-72 0 -131 -4 -131 -9z"/>
</g>
</svg>
